<svg width="22" height="23" viewBox="0 0 22 23" fill="none" xmlns="http://www.w3.org/2000/svg">
<path d="M2.64634 2.77915C6.1748 -0.926382 11.8964 -0.926382 15.4249 2.77915C18.6328 6.14741 18.9646 11.5018 16.2015 15.2691L20.8966 20.199C21.3549 20.6803 21.3549 21.4601 20.8966 21.9414C20.4382 22.4227 19.6949 22.4227 19.2366 21.9414L14.5415 17.0115C10.9536 19.9135 5.85419 19.565 2.64634 16.1967C-0.882114 12.4912 -0.882114 6.48405 2.64634 2.77915ZM4.05286 4.256C1.30098 7.14548 1.30098 11.8298 4.05286 14.7199C6.80473 17.6094 11.2665 17.6094 14.0184 14.7199C16.7703 11.8298 16.7703 7.14548 14.0184 4.256C11.2665 1.36588 6.80473 1.36588 4.05286 4.256Z" fill="currentColor"/>
</svg>
